<svg xmlns="http://www.w3.org/2000/svg" xmlns:xlink="http://www.w3.org/1999/xlink" width="250" zoomAndPan="magnify" viewBox="0 0 187.5 74.999997" height="100" preserveAspectRatio="xMidYMid meet" version="1.0"><defs><g/><clipPath id="id1"><path d="M 5 17.53125 L 46 17.53125 L 46 60 L 5 60 Z M 5 17.53125 " clip-rule="nonzero"/></clipPath><clipPath id="id2"><path d="M 106 32 L 133 32 L 133 71.257812 L 106 71.257812 Z M 106 32 " clip-rule="nonzero"/></clipPath><clipPath id="id3"><path d="M 144 32 L 169.960938 32 L 169.960938 60 L 144 60 Z M 144 32 " clip-rule="nonzero"/></clipPath><clipPath id="id4"><path d="M 8.832031 2.378906 L 21.175781 2.378906 L 21.175781 13.996094 L 8.832031 13.996094 Z M 8.832031 2.378906 " clip-rule="nonzero"/></clipPath><clipPath id="id5"><path d="M 21.445312 2.378906 L 33.789062 2.378906 L 33.789062 13.996094 L 21.445312 13.996094 Z M 21.445312 2.378906 " clip-rule="nonzero"/></clipPath><clipPath id="id6"><path d="M 34.058594 2.378906 L 46.402344 2.378906 L 46.402344 13.996094 L 34.058594 13.996094 Z M 34.058594 2.378906 " clip-rule="nonzero"/></clipPath><clipPath id="id7"><path d="M 46.671875 2.378906 L 59.015625 2.378906 L 59.015625 13.996094 L 46.671875 13.996094 Z M 46.671875 2.378906 " clip-rule="nonzero"/></clipPath><clipPath id="id8"><path d="M 59.285156 2.378906 L 71.628906 2.378906 L 71.628906 13.996094 L 59.285156 13.996094 Z M 59.285156 2.378906 " clip-rule="nonzero"/></clipPath></defs><g clip-path="url(#id1)"><path fill="#4885ed" d="M 45.457031 36.527344 L 26.292969 36.527344 L 26.292969 42.199219 L 39.886719 42.199219 C 39.210938 50.136719 32.582031 53.542969 26.316406 53.542969 C 25.324219 53.546875 24.34375 53.453125 23.371094 53.261719 C 22.398438 53.070312 21.453125 52.785156 20.535156 52.410156 C 19.617188 52.03125 18.75 51.566406 17.925781 51.011719 C 17.101562 50.460938 16.339844 49.835938 15.640625 49.132812 C 14.945312 48.429688 14.324219 47.664062 13.777344 46.839844 C 13.230469 46.011719 12.773438 45.140625 12.402344 44.222656 C 12.03125 43.304688 11.753906 42.359375 11.570312 41.386719 C 11.386719 40.414062 11.304688 39.433594 11.316406 38.445312 C 11.316406 29.863281 17.980469 23.253906 26.335938 23.253906 C 32.78125 23.253906 36.582031 27.351562 36.582031 27.351562 L 40.558594 23.238281 C 40.558594 23.238281 35.449219 17.566406 26.128906 17.566406 C 14.257812 17.566406 5.078125 27.554688 5.078125 38.34375 C 5.078125 48.917969 13.714844 59.226562 26.429688 59.226562 C 37.609375 59.226562 45.796875 51.585938 45.796875 40.289062 C 45.796875 37.90625 45.449219 36.527344 45.449219 36.527344 Z M 45.457031 36.527344 " fill-opacity="1" fill-rule="nonzero"/></g><path fill="#db3236" d="M 61.152344 32.421875 C 53.289062 32.421875 47.65625 38.554688 47.65625 45.699219 C 47.65625 52.957031 53.117188 59.199219 61.246094 59.199219 C 68.601562 59.199219 74.625 53.59375 74.625 45.855469 C 74.625 37.003906 67.617188 32.421875 61.152344 32.421875 Z M 61.230469 37.679688 C 65.097656 37.679688 68.761719 40.800781 68.761719 45.824219 C 68.761719 50.738281 65.109375 53.945312 61.210938 53.945312 C 56.925781 53.945312 53.558594 50.523438 53.558594 45.78125 C 53.558594 41.144531 56.894531 37.679688 61.242188 37.679688 Z M 61.230469 37.679688 " fill-opacity="1" fill-rule="nonzero"/><path fill="#f4c20d" d="M 90.507812 32.421875 C 82.644531 32.421875 77.011719 38.554688 77.011719 45.699219 C 77.011719 52.957031 82.472656 59.199219 90.601562 59.199219 C 97.957031 59.199219 103.980469 53.59375 103.980469 45.855469 C 103.980469 37.003906 96.972656 32.421875 90.507812 32.421875 Z M 90.585938 37.679688 C 94.449219 37.679688 98.113281 40.800781 98.113281 45.824219 C 98.113281 50.738281 94.464844 53.945312 90.566406 53.945312 C 86.28125 53.945312 82.914062 50.523438 82.914062 45.78125 C 82.914062 41.144531 86.25 37.679688 90.597656 37.679688 Z M 90.585938 37.679688 " fill-opacity="1" fill-rule="nonzero"/><g clip-path="url(#id2)"><path fill="#4885ed" d="M 119.300781 32.4375 C 112.082031 32.4375 106.410156 38.742188 106.410156 45.816406 C 106.410156 53.875 112.988281 59.21875 119.175781 59.21875 C 123 59.21875 125.035156 57.703125 126.519531 55.964844 L 126.519531 58.605469 C 126.519531 63.226562 123.707031 65.992188 119.464844 65.992188 C 115.363281 65.992188 113.304688 62.953125 112.574219 61.226562 L 107.414062 63.363281 C 109.246094 67.226562 112.929688 71.25 119.503906 71.25 C 126.699219 71.25 132.148438 66.742188 132.148438 57.289062 L 132.148438 33.242188 L 126.542969 33.242188 L 126.542969 35.507812 C 124.8125 33.648438 122.445312 32.4375 119.304688 32.4375 Z M 119.820312 37.6875 C 123.359375 37.6875 126.992188 40.699219 126.992188 45.84375 C 126.992188 51.074219 123.367188 53.957031 119.742188 53.957031 C 115.894531 53.957031 112.316406 50.84375 112.316406 45.894531 C 112.316406 40.753906 116.035156 37.6875 119.820312 37.6875 Z M 119.820312 37.6875 " fill-opacity="1" fill-rule="nonzero"/></g><g clip-path="url(#id3)"><path fill="#db3236" d="M 157.210938 32.40625 C 150.40625 32.40625 144.6875 37.808594 144.6875 45.773438 C 144.6875 54.210938 151.058594 59.210938 157.851562 59.210938 C 163.53125 59.210938 167.035156 56.113281 169.097656 53.335938 L 164.457031 50.253906 C 163.253906 52.117188 161.238281 53.941406 157.878906 53.941406 C 154.105469 53.941406 152.371094 51.878906 151.292969 49.882812 L 169.296875 42.433594 L 168.378906 40.25 C 166.640625 35.976562 162.582031 32.40625 157.214844 32.40625 Z M 157.445312 37.554688 C 159.898438 37.554688 161.664062 38.855469 162.414062 40.414062 L 150.390625 45.425781 C 149.871094 41.546875 153.558594 37.554688 157.429688 37.554688 Z M 157.445312 37.554688 " fill-opacity="1" fill-rule="nonzero"/></g><path fill="#3cba54" d="M 136.09375 58.417969 L 142.007812 58.417969 L 142.007812 18.953125 L 136.09375 18.953125 Z M 136.09375 58.417969 " fill-opacity="1" fill-rule="nonzero"/><g fill="#a6a6a6" fill-opacity="1"><g transform="translate(3.845338, 70.376061)"><g><path d="M 3.28125 -4.15625 L 4.859375 -7.5625 L 6.5625 -7.5625 L 4.078125 -2.75 L 4.078125 0 L 2.5 0 L 2.5 -2.75 L 0.015625 -7.5625 L 1.71875 -7.5625 Z M 3.28125 -4.15625 "/></g></g></g><g fill="#a6a6a6" fill-opacity="1"><g transform="translate(10.423028, 70.376061)"><g><path d="M 0.34375 -2.859375 C 0.34375 -3.421875 0.445312 -3.921875 0.65625 -4.359375 C 0.875 -4.796875 1.1875 -5.128906 1.59375 -5.359375 C 2 -5.597656 2.46875 -5.71875 3 -5.71875 C 3.757812 -5.71875 4.378906 -5.484375 4.859375 -5.015625 C 5.335938 -4.554688 5.601562 -3.929688 5.65625 -3.140625 L 5.671875 -2.75 C 5.671875 -1.882812 5.425781 -1.191406 4.9375 -0.671875 C 4.457031 -0.148438 3.8125 0.109375 3 0.109375 C 2.195312 0.109375 1.550781 -0.148438 1.0625 -0.671875 C 0.582031 -1.191406 0.34375 -1.898438 0.34375 -2.796875 Z M 1.84375 -2.75 C 1.84375 -2.21875 1.941406 -1.8125 2.140625 -1.53125 C 2.347656 -1.25 2.640625 -1.109375 3.015625 -1.109375 C 3.367188 -1.109375 3.648438 -1.242188 3.859375 -1.515625 C 4.066406 -1.796875 4.171875 -2.242188 4.171875 -2.859375 C 4.171875 -3.378906 4.066406 -3.785156 3.859375 -4.078125 C 3.648438 -4.367188 3.363281 -4.515625 3 -4.515625 C 2.632812 -4.515625 2.347656 -4.367188 2.140625 -4.078125 C 1.941406 -3.796875 1.84375 -3.351562 1.84375 -2.75 Z M 1.84375 -2.75 "/></g></g></g><g fill="#a6a6a6" fill-opacity="1"><g transform="translate(16.439589, 70.376061)"><g><path d="M 3.9375 -0.578125 C 3.570312 -0.117188 3.0625 0.109375 2.40625 0.109375 C 1.800781 0.109375 1.335938 -0.0625 1.015625 -0.40625 C 0.703125 -0.757812 0.546875 -1.269531 0.546875 -1.9375 L 0.546875 -5.625 L 2.046875 -5.625 L 2.046875 -1.984375 C 2.046875 -1.398438 2.3125 -1.109375 2.84375 -1.109375 C 3.351562 -1.109375 3.703125 -1.285156 3.890625 -1.640625 L 3.890625 -5.625 L 5.390625 -5.625 L 5.390625 0 L 3.984375 0 Z M 3.9375 -0.578125 "/></g></g></g><g fill="#a6a6a6" fill-opacity="1"><g transform="translate(22.393801, 70.376061)"><g><path d="M 3.734375 -4.21875 C 3.523438 -4.238281 3.34375 -4.25 3.1875 -4.25 C 2.625 -4.25 2.253906 -4.054688 2.078125 -3.671875 L 2.078125 0 L 0.578125 0 L 0.578125 -5.625 L 2 -5.625 L 2.03125 -4.953125 C 2.332031 -5.460938 2.75 -5.71875 3.28125 -5.71875 C 3.445312 -5.71875 3.601562 -5.695312 3.75 -5.65625 Z M 3.734375 -4.21875 "/></g></g></g><g fill="#a6a6a6" fill-opacity="1"><g transform="translate(26.27495, 70.376061)"><g/></g></g><g fill="#a6a6a6" fill-opacity="1"><g transform="translate(28.92473, 70.376061)"><g><path d="M 0.34375 -2.859375 C 0.34375 -3.421875 0.445312 -3.921875 0.65625 -4.359375 C 0.875 -4.796875 1.1875 -5.128906 1.59375 -5.359375 C 2 -5.597656 2.46875 -5.71875 3 -5.71875 C 3.757812 -5.71875 4.378906 -5.484375 4.859375 -5.015625 C 5.335938 -4.554688 5.601562 -3.929688 5.65625 -3.140625 L 5.671875 -2.75 C 5.671875 -1.882812 5.425781 -1.191406 4.9375 -0.671875 C 4.457031 -0.148438 3.8125 0.109375 3 0.109375 C 2.195312 0.109375 1.550781 -0.148438 1.0625 -0.671875 C 0.582031 -1.191406 0.34375 -1.898438 0.34375 -2.796875 Z M 1.84375 -2.75 C 1.84375 -2.21875 1.941406 -1.8125 2.140625 -1.53125 C 2.347656 -1.25 2.640625 -1.109375 3.015625 -1.109375 C 3.367188 -1.109375 3.648438 -1.242188 3.859375 -1.515625 C 4.066406 -1.796875 4.171875 -2.242188 4.171875 -2.859375 C 4.171875 -3.378906 4.066406 -3.785156 3.859375 -4.078125 C 3.648438 -4.367188 3.363281 -4.515625 3 -4.515625 C 2.632812 -4.515625 2.347656 -4.367188 2.140625 -4.078125 C 1.941406 -3.796875 1.84375 -3.351562 1.84375 -2.75 Z M 1.84375 -2.75 "/></g></g></g><g fill="#a6a6a6" fill-opacity="1"><g transform="translate(34.94129, 70.376061)"><g><path d="M 5.640625 -2.765625 C 5.640625 -1.890625 5.441406 -1.191406 5.046875 -0.671875 C 4.648438 -0.148438 4.117188 0.109375 3.453125 0.109375 C 2.890625 0.109375 2.429688 -0.0859375 2.078125 -0.484375 L 2.078125 2.15625 L 0.578125 2.15625 L 0.578125 -5.625 L 1.96875 -5.625 L 2.015625 -5.078125 C 2.378906 -5.503906 2.851562 -5.71875 3.4375 -5.71875 C 4.132812 -5.71875 4.675781 -5.460938 5.0625 -4.953125 C 5.445312 -4.441406 5.640625 -3.738281 5.640625 -2.84375 Z M 4.140625 -2.875 C 4.140625 -3.394531 4.046875 -3.796875 3.859375 -4.078125 C 3.671875 -4.359375 3.398438 -4.5 3.046875 -4.5 C 2.578125 -4.5 2.253906 -4.320312 2.078125 -3.96875 L 2.078125 -1.65625 C 2.265625 -1.289062 2.59375 -1.109375 3.0625 -1.109375 C 3.78125 -1.109375 4.140625 -1.695312 4.140625 -2.875 Z M 4.140625 -2.875 "/></g></g></g><g fill="#a6a6a6" fill-opacity="1"><g transform="translate(40.931872, 70.376061)"><g><path d="M 2.15625 0 L 0.65625 0 L 0.65625 -5.625 L 2.15625 -5.625 Z M 0.5625 -7.078125 C 0.5625 -7.304688 0.632812 -7.488281 0.78125 -7.625 C 0.9375 -7.769531 1.144531 -7.84375 1.40625 -7.84375 C 1.664062 -7.84375 1.867188 -7.769531 2.015625 -7.625 C 2.171875 -7.488281 2.25 -7.304688 2.25 -7.078125 C 2.25 -6.847656 2.171875 -6.660156 2.015625 -6.515625 C 1.859375 -6.367188 1.65625 -6.296875 1.40625 -6.296875 C 1.15625 -6.296875 0.953125 -6.367188 0.796875 -6.515625 C 0.640625 -6.660156 0.5625 -6.847656 0.5625 -7.078125 Z M 0.5625 -7.078125 "/></g></g></g><g fill="#a6a6a6" fill-opacity="1"><g transform="translate(43.753109, 70.376061)"><g><path d="M 1.953125 -5.625 L 2 -4.96875 C 2.40625 -5.46875 2.945312 -5.71875 3.625 -5.71875 C 4.21875 -5.71875 4.660156 -5.539062 4.953125 -5.1875 C 5.242188 -4.84375 5.390625 -4.320312 5.390625 -3.625 L 5.390625 0 L 3.890625 0 L 3.890625 -3.59375 C 3.890625 -3.914062 3.820312 -4.144531 3.6875 -4.28125 C 3.550781 -4.425781 3.320312 -4.5 3 -4.5 C 2.570312 -4.5 2.253906 -4.320312 2.046875 -3.96875 L 2.046875 0 L 0.546875 0 L 0.546875 -5.625 Z M 1.953125 -5.625 "/></g></g></g><g fill="#a6a6a6" fill-opacity="1"><g transform="translate(49.712517, 70.376061)"><g><path d="M 2.15625 0 L 0.65625 0 L 0.65625 -5.625 L 2.15625 -5.625 Z M 0.5625 -7.078125 C 0.5625 -7.304688 0.632812 -7.488281 0.78125 -7.625 C 0.9375 -7.769531 1.144531 -7.84375 1.40625 -7.84375 C 1.664062 -7.84375 1.867188 -7.769531 2.015625 -7.625 C 2.171875 -7.488281 2.25 -7.304688 2.25 -7.078125 C 2.25 -6.847656 2.171875 -6.660156 2.015625 -6.515625 C 1.859375 -6.367188 1.65625 -6.296875 1.40625 -6.296875 C 1.15625 -6.296875 0.953125 -6.367188 0.796875 -6.515625 C 0.640625 -6.660156 0.5625 -6.847656 0.5625 -7.078125 Z M 0.5625 -7.078125 "/></g></g></g><g fill="#a6a6a6" fill-opacity="1"><g transform="translate(52.533754, 70.376061)"><g><path d="M 0.34375 -2.859375 C 0.34375 -3.421875 0.445312 -3.921875 0.65625 -4.359375 C 0.875 -4.796875 1.1875 -5.128906 1.59375 -5.359375 C 2 -5.597656 2.46875 -5.71875 3 -5.71875 C 3.757812 -5.71875 4.378906 -5.484375 4.859375 -5.015625 C 5.335938 -4.554688 5.601562 -3.929688 5.65625 -3.140625 L 5.671875 -2.75 C 5.671875 -1.882812 5.425781 -1.191406 4.9375 -0.671875 C 4.457031 -0.148438 3.8125 0.109375 3 0.109375 C 2.195312 0.109375 1.550781 -0.148438 1.0625 -0.671875 C 0.582031 -1.191406 0.34375 -1.898438 0.34375 -2.796875 Z M 1.84375 -2.75 C 1.84375 -2.21875 1.941406 -1.8125 2.140625 -1.53125 C 2.347656 -1.25 2.640625 -1.109375 3.015625 -1.109375 C 3.367188 -1.109375 3.648438 -1.242188 3.859375 -1.515625 C 4.066406 -1.796875 4.171875 -2.242188 4.171875 -2.859375 C 4.171875 -3.378906 4.066406 -3.785156 3.859375 -4.078125 C 3.648438 -4.367188 3.363281 -4.515625 3 -4.515625 C 2.632812 -4.515625 2.347656 -4.367188 2.140625 -4.078125 C 1.941406 -3.796875 1.84375 -3.351562 1.84375 -2.75 Z M 1.84375 -2.75 "/></g></g></g><g fill="#a6a6a6" fill-opacity="1"><g transform="translate(58.550314, 70.376061)"><g><path d="M 1.953125 -5.625 L 2 -4.96875 C 2.40625 -5.46875 2.945312 -5.71875 3.625 -5.71875 C 4.21875 -5.71875 4.660156 -5.539062 4.953125 -5.1875 C 5.242188 -4.84375 5.390625 -4.320312 5.390625 -3.625 L 5.390625 0 L 3.890625 0 L 3.890625 -3.59375 C 3.890625 -3.914062 3.820312 -4.144531 3.6875 -4.28125 C 3.550781 -4.425781 3.320312 -4.5 3 -4.5 C 2.570312 -4.5 2.253906 -4.320312 2.046875 -3.96875 L 2.046875 0 L 0.546875 0 L 0.546875 -5.625 Z M 1.953125 -5.625 "/></g></g></g><g fill="#a6a6a6" fill-opacity="1"><g transform="translate(64.509722, 70.376061)"><g/></g></g><g fill="#a6a6a6" fill-opacity="1"><g transform="translate(67.159502, 70.376061)"><g><path d="M 1.984375 -5.625 L 2.03125 -5 C 2.425781 -5.476562 2.960938 -5.71875 3.640625 -5.71875 C 4.367188 -5.71875 4.867188 -5.4375 5.140625 -4.875 C 5.535156 -5.4375 6.097656 -5.71875 6.828125 -5.71875 C 7.429688 -5.71875 7.882812 -5.539062 8.1875 -5.1875 C 8.488281 -4.832031 8.640625 -4.300781 8.640625 -3.59375 L 8.640625 0 L 7.125 0 L 7.125 -3.578125 C 7.125 -3.898438 7.0625 -4.132812 6.9375 -4.28125 C 6.8125 -4.425781 6.59375 -4.5 6.28125 -4.5 C 5.832031 -4.5 5.519531 -4.285156 5.34375 -3.859375 L 5.34375 0 L 3.84375 0 L 3.84375 -3.578125 C 3.84375 -3.898438 3.78125 -4.132812 3.65625 -4.28125 C 3.53125 -4.425781 3.3125 -4.5 3 -4.5 C 2.570312 -4.5 2.265625 -4.320312 2.078125 -3.96875 L 2.078125 0 L 0.578125 0 L 0.578125 -5.625 Z M 1.984375 -5.625 "/></g></g></g><g fill="#a6a6a6" fill-opacity="1"><g transform="translate(76.371386, 70.376061)"><g><path d="M 3.828125 0 C 3.765625 -0.132812 3.71875 -0.300781 3.6875 -0.5 C 3.320312 -0.09375 2.847656 0.109375 2.265625 0.109375 C 1.710938 0.109375 1.253906 -0.0507812 0.890625 -0.375 C 0.535156 -0.695312 0.359375 -1.097656 0.359375 -1.578125 C 0.359375 -2.171875 0.578125 -2.625 1.015625 -2.9375 C 1.453125 -3.257812 2.09375 -3.425781 2.9375 -3.4375 L 3.625 -3.4375 L 3.625 -3.75 C 3.625 -4.007812 3.554688 -4.21875 3.421875 -4.375 C 3.285156 -4.53125 3.078125 -4.609375 2.796875 -4.609375 C 2.535156 -4.609375 2.332031 -4.546875 2.1875 -4.421875 C 2.050781 -4.304688 1.984375 -4.144531 1.984375 -3.9375 L 0.484375 -3.9375 C 0.484375 -4.257812 0.582031 -4.554688 0.78125 -4.828125 C 0.976562 -5.109375 1.257812 -5.328125 1.625 -5.484375 C 2 -5.640625 2.414062 -5.71875 2.875 -5.71875 C 3.5625 -5.71875 4.109375 -5.546875 4.515625 -5.203125 C 4.921875 -4.859375 5.125 -4.367188 5.125 -3.734375 L 5.125 -1.296875 C 5.132812 -0.765625 5.207031 -0.363281 5.34375 -0.09375 L 5.34375 0 Z M 2.59375 -1.046875 C 2.8125 -1.046875 3.015625 -1.09375 3.203125 -1.1875 C 3.390625 -1.289062 3.53125 -1.425781 3.625 -1.59375 L 3.625 -2.5625 L 3.0625 -2.5625 C 2.3125 -2.5625 1.910156 -2.300781 1.859375 -1.78125 L 1.859375 -1.6875 C 1.859375 -1.5 1.921875 -1.34375 2.046875 -1.21875 C 2.179688 -1.101562 2.363281 -1.046875 2.59375 -1.046875 Z M 2.59375 -1.046875 "/></g></g></g><g fill="#a6a6a6" fill-opacity="1"><g transform="translate(82.076207, 70.376061)"><g><path d="M 2.375 -7 L 2.375 -5.625 L 3.328125 -5.625 L 3.328125 -4.515625 L 2.375 -4.515625 L 2.375 -1.71875 C 2.375 -1.507812 2.410156 -1.359375 2.484375 -1.265625 C 2.566406 -1.171875 2.722656 -1.125 2.953125 -1.125 C 3.117188 -1.125 3.265625 -1.140625 3.390625 -1.171875 L 3.390625 -0.03125 C 3.097656 0.0625 2.796875 0.109375 2.484375 0.109375 C 1.429688 0.109375 0.894531 -0.421875 0.875 -1.484375 L 0.875 -4.515625 L 0.046875 -4.515625 L 0.046875 -5.625 L 0.875 -5.625 L 0.875 -7 Z M 2.375 -7 "/></g></g></g><g fill="#a6a6a6" fill-opacity="1"><g transform="translate(85.671595, 70.376061)"><g><path d="M 2.375 -7 L 2.375 -5.625 L 3.328125 -5.625 L 3.328125 -4.515625 L 2.375 -4.515625 L 2.375 -1.71875 C 2.375 -1.507812 2.410156 -1.359375 2.484375 -1.265625 C 2.566406 -1.171875 2.722656 -1.125 2.953125 -1.125 C 3.117188 -1.125 3.265625 -1.140625 3.390625 -1.171875 L 3.390625 -0.03125 C 3.097656 0.0625 2.796875 0.109375 2.484375 0.109375 C 1.429688 0.109375 0.894531 -0.421875 0.875 -1.484375 L 0.875 -4.515625 L 0.046875 -4.515625 L 0.046875 -5.625 L 0.875 -5.625 L 0.875 -7 Z M 2.375 -7 "/></g></g></g><g fill="#a6a6a6" fill-opacity="1"><g transform="translate(89.266983, 70.376061)"><g><path d="M 3.171875 0.109375 C 2.335938 0.109375 1.660156 -0.140625 1.140625 -0.640625 C 0.628906 -1.148438 0.375 -1.828125 0.375 -2.671875 L 0.375 -2.828125 C 0.375 -3.390625 0.484375 -3.890625 0.703125 -4.328125 C 0.921875 -4.773438 1.226562 -5.117188 1.625 -5.359375 C 2.03125 -5.597656 2.488281 -5.71875 3 -5.71875 C 3.769531 -5.71875 4.375 -5.472656 4.8125 -4.984375 C 5.25 -4.503906 5.46875 -3.820312 5.46875 -2.9375 L 5.46875 -2.328125 L 1.890625 -2.328125 C 1.941406 -1.953125 2.085938 -1.65625 2.328125 -1.4375 C 2.578125 -1.21875 2.890625 -1.109375 3.265625 -1.109375 C 3.835938 -1.109375 4.289062 -1.316406 4.625 -1.734375 L 5.359375 -0.90625 C 5.128906 -0.59375 4.820312 -0.34375 4.4375 -0.15625 C 4.050781 0.0195312 3.628906 0.109375 3.171875 0.109375 Z M 3 -4.515625 C 2.695312 -4.515625 2.453125 -4.410156 2.265625 -4.203125 C 2.078125 -4.003906 1.957031 -3.71875 1.90625 -3.34375 L 4 -3.34375 L 4 -3.46875 C 3.988281 -3.800781 3.894531 -4.054688 3.71875 -4.234375 C 3.550781 -4.421875 3.3125 -4.515625 3 -4.515625 Z M 3 -4.515625 "/></g></g></g><g fill="#a6a6a6" fill-opacity="1"><g transform="translate(95.018565, 70.376061)"><g><path d="M 3.734375 -4.21875 C 3.523438 -4.238281 3.34375 -4.25 3.1875 -4.25 C 2.625 -4.25 2.253906 -4.054688 2.078125 -3.671875 L 2.078125 0 L 0.578125 0 L 0.578125 -5.625 L 2 -5.625 L 2.03125 -4.953125 C 2.332031 -5.460938 2.75 -5.71875 3.28125 -5.71875 C 3.445312 -5.71875 3.601562 -5.695312 3.75 -5.65625 Z M 3.734375 -4.21875 "/></g></g></g><g fill="#a6a6a6" fill-opacity="1"><g transform="translate(98.899714, 70.376061)"><g><path d="M 3.625 -1.546875 C 3.625 -1.734375 3.53125 -1.878906 3.34375 -1.984375 C 3.164062 -2.085938 2.875 -2.179688 2.46875 -2.265625 C 1.132812 -2.546875 0.46875 -3.113281 0.46875 -3.96875 C 0.46875 -4.46875 0.671875 -4.882812 1.078125 -5.21875 C 1.492188 -5.550781 2.039062 -5.71875 2.71875 -5.71875 C 3.425781 -5.71875 3.992188 -5.550781 4.421875 -5.21875 C 4.847656 -4.882812 5.0625 -4.445312 5.0625 -3.90625 L 3.5625 -3.90625 C 3.5625 -4.125 3.492188 -4.300781 3.359375 -4.4375 C 3.222656 -4.582031 3.003906 -4.65625 2.703125 -4.65625 C 2.453125 -4.65625 2.253906 -4.597656 2.109375 -4.484375 C 1.972656 -4.367188 1.90625 -4.222656 1.90625 -4.046875 C 1.90625 -3.878906 1.984375 -3.742188 2.140625 -3.640625 C 2.304688 -3.535156 2.570312 -3.445312 2.9375 -3.375 C 3.3125 -3.300781 3.628906 -3.21875 3.890625 -3.125 C 4.679688 -2.832031 5.078125 -2.328125 5.078125 -1.609375 C 5.078125 -1.097656 4.859375 -0.679688 4.421875 -0.359375 C 3.984375 -0.046875 3.414062 0.109375 2.71875 0.109375 C 2.25 0.109375 1.832031 0.0234375 1.46875 -0.140625 C 1.101562 -0.316406 0.816406 -0.550781 0.609375 -0.84375 C 0.398438 -1.132812 0.296875 -1.445312 0.296875 -1.78125 L 1.71875 -1.78125 C 1.726562 -1.519531 1.820312 -1.316406 2 -1.171875 C 2.1875 -1.035156 2.4375 -0.96875 2.75 -0.96875 C 3.039062 -0.96875 3.257812 -1.019531 3.40625 -1.125 C 3.550781 -1.226562 3.625 -1.367188 3.625 -1.546875 Z M 3.625 -1.546875 "/></g></g></g><g clip-path="url(#id4)"><path fill="#f4c01e" d="M 15.003906 2.378906 L 16.59375 5.914062 C 16.652344 6.050781 16.75 6.167969 16.871094 6.257812 C 16.992188 6.34375 17.136719 6.398438 17.285156 6.414062 L 21.175781 6.816406 L 18.265625 9.40625 C 18.15625 9.503906 18.074219 9.632812 18.027344 9.773438 C 17.980469 9.914062 17.972656 10.066406 18.003906 10.210938 L 18.816406 13.996094 L 15.429688 12.058594 C 15.300781 11.984375 15.152344 11.945312 15.003906 11.945312 C 14.851562 11.945312 14.707031 11.984375 14.574219 12.058594 L 11.1875 13.996094 L 12.003906 10.210938 C 12.035156 10.066406 12.027344 9.914062 11.980469 9.773438 C 11.933594 9.632812 11.851562 9.503906 11.738281 9.40625 L 8.832031 6.816406 L 12.722656 6.414062 C 12.871094 6.398438 13.015625 6.34375 13.136719 6.257812 C 13.257812 6.167969 13.351562 6.050781 13.414062 5.914062 Z M 15.003906 2.378906 " fill-opacity="1" fill-rule="evenodd"/></g><g clip-path="url(#id5)"><path fill="#f4c01e" d="M 27.617188 2.378906 L 29.207031 5.914062 C 29.265625 6.050781 29.363281 6.167969 29.484375 6.257812 C 29.605469 6.34375 29.75 6.398438 29.898438 6.414062 L 33.789062 6.816406 L 30.878906 9.40625 C 30.769531 9.503906 30.6875 9.632812 30.640625 9.773438 C 30.59375 9.914062 30.585938 10.066406 30.617188 10.210938 L 31.429688 13.996094 L 28.042969 12.058594 C 27.914062 11.984375 27.765625 11.945312 27.617188 11.945312 C 27.464844 11.945312 27.320312 11.984375 27.1875 12.058594 L 23.804688 13.996094 L 24.617188 10.210938 C 24.648438 10.066406 24.640625 9.914062 24.59375 9.773438 C 24.546875 9.632812 24.464844 9.503906 24.351562 9.40625 L 21.445312 6.816406 L 25.335938 6.414062 C 25.484375 6.398438 25.628906 6.34375 25.75 6.257812 C 25.871094 6.167969 25.964844 6.050781 26.027344 5.914062 Z M 27.617188 2.378906 " fill-opacity="1" fill-rule="evenodd"/></g><g clip-path="url(#id6)"><path fill="#f4c01e" d="M 40.230469 2.378906 L 41.820312 5.914062 C 41.878906 6.050781 41.976562 6.167969 42.097656 6.257812 C 42.21875 6.34375 42.363281 6.398438 42.511719 6.414062 L 46.402344 6.816406 L 43.496094 9.40625 C 43.382812 9.503906 43.300781 9.632812 43.253906 9.773438 C 43.207031 9.914062 43.199219 10.066406 43.230469 10.210938 L 44.042969 13.996094 L 40.660156 12.058594 C 40.527344 11.984375 40.378906 11.945312 40.230469 11.945312 C 40.082031 11.945312 39.933594 11.984375 39.800781 12.058594 L 36.417969 13.996094 L 37.230469 10.210938 C 37.261719 10.066406 37.253906 9.914062 37.207031 9.773438 C 37.160156 9.632812 37.078125 9.503906 36.964844 9.40625 L 34.058594 6.816406 L 37.949219 6.414062 C 38.097656 6.398438 38.242188 6.34375 38.363281 6.257812 C 38.484375 6.167969 38.578125 6.050781 38.640625 5.914062 Z M 40.230469 2.378906 " fill-opacity="1" fill-rule="evenodd"/></g><g clip-path="url(#id7)"><path fill="#f4c01e" d="M 52.84375 2.378906 L 54.433594 5.914062 C 54.496094 6.050781 54.589844 6.167969 54.710938 6.257812 C 54.832031 6.34375 54.976562 6.398438 55.125 6.414062 L 59.015625 6.816406 L 56.109375 9.40625 C 55.996094 9.503906 55.914062 9.632812 55.867188 9.773438 C 55.820312 9.914062 55.8125 10.066406 55.84375 10.210938 L 56.65625 13.996094 L 53.273438 12.058594 C 53.140625 11.984375 52.996094 11.945312 52.84375 11.945312 C 52.695312 11.945312 52.546875 11.984375 52.417969 12.058594 L 49.03125 13.996094 L 49.84375 10.210938 C 49.875 10.066406 49.867188 9.914062 49.820312 9.773438 C 49.773438 9.632812 49.691406 9.503906 49.582031 9.40625 L 46.671875 6.816406 L 50.5625 6.414062 C 50.710938 6.398438 50.855469 6.34375 50.976562 6.257812 C 51.097656 6.167969 51.195312 6.050781 51.253906 5.914062 Z M 52.84375 2.378906 " fill-opacity="1" fill-rule="evenodd"/></g><g clip-path="url(#id8)"><path fill="#f4c01e" d="M 65.457031 2.378906 L 67.046875 5.914062 C 67.109375 6.050781 67.203125 6.167969 67.324219 6.257812 C 67.445312 6.34375 67.589844 6.398438 67.738281 6.414062 L 71.628906 6.816406 L 68.722656 9.40625 C 68.609375 9.503906 68.527344 9.632812 68.480469 9.773438 C 68.433594 9.914062 68.425781 10.066406 68.457031 10.210938 L 69.269531 13.996094 L 65.886719 12.058594 C 65.753906 11.984375 65.609375 11.945312 65.457031 11.945312 C 65.308594 11.945312 65.160156 11.984375 65.03125 12.058594 L 61.644531 13.996094 L 62.457031 10.210938 C 62.488281 10.066406 62.480469 9.914062 62.433594 9.773438 C 62.386719 9.632812 62.304688 9.503906 62.195312 9.40625 L 59.285156 6.816406 L 63.175781 6.414062 C 63.324219 6.398438 63.46875 6.34375 63.589844 6.257812 C 63.710938 6.167969 63.808594 6.050781 63.867188 5.914062 Z M 65.457031 2.378906 " fill-opacity="1" fill-rule="evenodd"/></g><g fill="#000000" fill-opacity="1"><g transform="translate(77.562954, 13.081331)"><g><path d="M 0.765625 -10.546875 L 4.53125 -10.546875 C 5.550781 -10.546875 6.378906 -10.273438 7.015625 -9.734375 C 7.648438 -9.191406 7.96875 -8.414062 7.96875 -7.40625 C 7.96875 -6.632812 7.773438 -5.984375 7.390625 -5.453125 C 7.003906 -4.929688 6.476562 -4.566406 5.8125 -4.359375 L 9.4375 0 L 6.390625 0 L 3.171875 -4.171875 L 3.171875 0 L 0.765625 0 Z M 3.171875 -5.859375 L 3.453125 -5.859375 C 3.671875 -5.859375 3.859375 -5.863281 4.015625 -5.875 C 4.171875 -5.882812 4.34375 -5.914062 4.53125 -5.96875 C 4.726562 -6.019531 4.882812 -6.09375 5 -6.1875 C 5.125 -6.28125 5.226562 -6.414062 5.3125 -6.59375 C 5.394531 -6.769531 5.4375 -6.984375 5.4375 -7.234375 C 5.4375 -7.492188 5.394531 -7.710938 5.3125 -7.890625 C 5.226562 -8.078125 5.125 -8.21875 5 -8.3125 C 4.882812 -8.40625 4.726562 -8.476562 4.53125 -8.53125 C 4.34375 -8.582031 4.171875 -8.609375 4.015625 -8.609375 C 3.859375 -8.617188 3.671875 -8.625 3.453125 -8.625 L 3.171875 -8.625 Z M 3.171875 -5.859375 "/></g></g></g><g fill="#000000" fill-opacity="1"><g transform="translate(86.712552, 13.081331)"><g><path d="M 7.40625 -2.96875 L 2.640625 -2.96875 C 2.640625 -2.507812 2.789062 -2.164062 3.09375 -1.9375 C 3.394531 -1.71875 3.71875 -1.609375 4.0625 -1.609375 C 4.425781 -1.609375 4.710938 -1.65625 4.921875 -1.75 C 5.140625 -1.851562 5.382812 -2.050781 5.65625 -2.34375 L 7.296875 -1.515625 C 6.617188 -0.378906 5.484375 0.1875 3.890625 0.1875 C 2.910156 0.1875 2.066406 -0.148438 1.359375 -0.828125 C 0.648438 -1.503906 0.296875 -2.316406 0.296875 -3.265625 C 0.296875 -4.222656 0.648438 -5.039062 1.359375 -5.71875 C 2.066406 -6.40625 2.910156 -6.75 3.890625 -6.75 C 4.929688 -6.75 5.773438 -6.445312 6.421875 -5.84375 C 7.078125 -5.25 7.40625 -4.390625 7.40625 -3.265625 C 7.40625 -3.117188 7.40625 -3.019531 7.40625 -2.96875 Z M 2.703125 -4.21875 L 5.203125 -4.21875 C 5.148438 -4.5625 5.015625 -4.820312 4.796875 -5 C 4.578125 -5.1875 4.300781 -5.28125 3.96875 -5.28125 C 3.59375 -5.28125 3.289062 -5.179688 3.0625 -4.984375 C 2.84375 -4.785156 2.722656 -4.53125 2.703125 -4.21875 Z M 2.703125 -4.21875 "/></g></g></g><g fill="#000000" fill-opacity="1"><g transform="translate(94.418153, 13.081331)"><g><path d="M 2.421875 -6.5625 L 4.03125 -2.984375 L 5.625 -6.5625 L 8.3125 -6.5625 L 4.796875 0 L 3.265625 0 L -0.25 -6.5625 Z M 2.421875 -6.5625 "/></g></g></g><g fill="#000000" fill-opacity="1"><g transform="translate(102.468774, 13.081331)"><g><path d="M 0.984375 -10.203125 C 1.242188 -10.472656 1.554688 -10.609375 1.921875 -10.609375 C 2.296875 -10.609375 2.613281 -10.472656 2.875 -10.203125 C 3.132812 -9.941406 3.265625 -9.628906 3.265625 -9.265625 C 3.265625 -8.898438 3.132812 -8.582031 2.875 -8.3125 C 2.613281 -8.050781 2.296875 -7.921875 1.921875 -7.921875 C 1.554688 -7.921875 1.242188 -8.050781 0.984375 -8.3125 C 0.722656 -8.582031 0.59375 -8.898438 0.59375 -9.265625 C 0.59375 -9.628906 0.722656 -9.941406 0.984375 -10.203125 Z M 0.765625 -6.5625 L 0.765625 0 L 3.03125 0 L 3.03125 -6.5625 Z M 0.765625 -6.5625 "/></g></g></g><g fill="#000000" fill-opacity="1"><g transform="translate(106.327966, 13.081331)"><g><path d="M 7.40625 -2.96875 L 2.640625 -2.96875 C 2.640625 -2.507812 2.789062 -2.164062 3.09375 -1.9375 C 3.394531 -1.71875 3.71875 -1.609375 4.0625 -1.609375 C 4.425781 -1.609375 4.710938 -1.65625 4.921875 -1.75 C 5.140625 -1.851562 5.382812 -2.050781 5.65625 -2.34375 L 7.296875 -1.515625 C 6.617188 -0.378906 5.484375 0.1875 3.890625 0.1875 C 2.910156 0.1875 2.066406 -0.148438 1.359375 -0.828125 C 0.648438 -1.503906 0.296875 -2.316406 0.296875 -3.265625 C 0.296875 -4.222656 0.648438 -5.039062 1.359375 -5.71875 C 2.066406 -6.40625 2.910156 -6.75 3.890625 -6.75 C 4.929688 -6.75 5.773438 -6.445312 6.421875 -5.84375 C 7.078125 -5.25 7.40625 -4.390625 7.40625 -3.265625 C 7.40625 -3.117188 7.40625 -3.019531 7.40625 -2.96875 Z M 2.703125 -4.21875 L 5.203125 -4.21875 C 5.148438 -4.5625 5.015625 -4.820312 4.796875 -5 C 4.578125 -5.1875 4.300781 -5.28125 3.96875 -5.28125 C 3.59375 -5.28125 3.289062 -5.179688 3.0625 -4.984375 C 2.84375 -4.785156 2.722656 -4.53125 2.703125 -4.21875 Z M 2.703125 -4.21875 "/></g></g></g><g fill="#000000" fill-opacity="1"><g transform="translate(114.033568, 13.081331)"><g><path d="M 4.796875 0 L 3.265625 0 L -0.25 -6.5625 L 2.359375 -6.5625 L 3.953125 -3.015625 L 5.515625 -6.5625 L 7.078125 -6.5625 L 8.65625 -3.015625 L 10.25 -6.5625 L 12.859375 -6.5625 L 9.34375 0 L 7.8125 0 L 6.296875 -3.390625 Z M 4.796875 0 "/></g></g></g><g fill="#000000" fill-opacity="1"><g transform="translate(126.633431, 13.081331)"><g/></g></g><g fill="#000000" fill-opacity="1"><g transform="translate(130.122037, 13.081331)"><g><path d="M 2.90625 -6.5625 L 2.90625 -3.4375 C 2.90625 -2.789062 3 -2.332031 3.1875 -2.0625 C 3.382812 -1.789062 3.71875 -1.65625 4.1875 -1.65625 C 4.65625 -1.65625 4.988281 -1.789062 5.1875 -2.0625 C 5.382812 -2.332031 5.484375 -2.789062 5.484375 -3.4375 L 5.484375 -6.5625 L 7.75 -6.5625 L 7.75 -2.890625 C 7.75 -1.796875 7.460938 -1.007812 6.890625 -0.53125 C 6.328125 -0.0507812 5.425781 0.1875 4.1875 0.1875 C 2.957031 0.1875 2.054688 -0.0507812 1.484375 -0.53125 C 0.921875 -1.007812 0.640625 -1.796875 0.640625 -2.890625 L 0.640625 -6.5625 Z M 2.90625 -6.5625 "/></g></g></g><g fill="#000000" fill-opacity="1"><g transform="translate(138.504905, 13.081331)"><g><path d="M 3.609375 -6.75 C 3.984375 -6.75 4.351562 -6.707031 4.71875 -6.625 C 5.09375 -6.539062 5.367188 -6.453125 5.546875 -6.359375 L 5.8125 -6.234375 L 5.078125 -4.75 C 4.566406 -5.019531 4.078125 -5.15625 3.609375 -5.15625 C 3.359375 -5.15625 3.179688 -5.128906 3.078125 -5.078125 C 2.972656 -5.023438 2.921875 -4.921875 2.921875 -4.765625 C 2.921875 -4.734375 2.921875 -4.695312 2.921875 -4.65625 C 2.929688 -4.625 2.945312 -4.59375 2.96875 -4.5625 C 3 -4.539062 3.023438 -4.515625 3.046875 -4.484375 C 3.066406 -4.460938 3.101562 -4.441406 3.15625 -4.421875 C 3.207031 -4.398438 3.25 -4.378906 3.28125 -4.359375 C 3.3125 -4.347656 3.359375 -4.328125 3.421875 -4.296875 C 3.492188 -4.273438 3.546875 -4.257812 3.578125 -4.25 C 3.609375 -4.238281 3.664062 -4.21875 3.75 -4.1875 C 3.832031 -4.164062 3.894531 -4.148438 3.9375 -4.140625 C 4.195312 -4.066406 4.425781 -3.984375 4.625 -3.890625 C 4.820312 -3.796875 5.03125 -3.664062 5.25 -3.5 C 5.46875 -3.34375 5.632812 -3.140625 5.75 -2.890625 C 5.875 -2.640625 5.9375 -2.359375 5.9375 -2.046875 C 5.9375 -0.554688 4.898438 0.1875 2.828125 0.1875 C 2.359375 0.1875 1.910156 0.113281 1.484375 -0.03125 C 1.066406 -0.175781 0.765625 -0.316406 0.578125 -0.453125 L 0.296875 -0.6875 L 1.21875 -2.234375 C 1.28125 -2.171875 1.367188 -2.097656 1.484375 -2.015625 C 1.597656 -1.941406 1.796875 -1.832031 2.078125 -1.6875 C 2.367188 -1.550781 2.625 -1.484375 2.84375 -1.484375 C 3.3125 -1.484375 3.546875 -1.640625 3.546875 -1.953125 C 3.546875 -2.097656 3.484375 -2.210938 3.359375 -2.296875 C 3.242188 -2.378906 3.039062 -2.46875 2.75 -2.5625 C 2.46875 -2.664062 2.242188 -2.757812 2.078125 -2.84375 C 1.671875 -3.0625 1.347656 -3.300781 1.109375 -3.5625 C 0.867188 -3.832031 0.75 -4.191406 0.75 -4.640625 C 0.75 -5.304688 1.003906 -5.820312 1.515625 -6.1875 C 2.035156 -6.5625 2.734375 -6.75 3.609375 -6.75 Z M 3.609375 -6.75 "/></g></g></g><g fill="#000000" fill-opacity="1"><g transform="translate(144.792053, 13.081331)"><g/></g></g><g fill="#000000" fill-opacity="1"><g transform="translate(148.280658, 13.081331)"><g><path d="M 1.390625 -0.78125 C 0.660156 -1.425781 0.296875 -2.253906 0.296875 -3.265625 C 0.296875 -4.285156 0.671875 -5.117188 1.421875 -5.765625 C 2.179688 -6.421875 3.125 -6.75 4.25 -6.75 C 5.34375 -6.75 6.265625 -6.421875 7.015625 -5.765625 C 7.773438 -5.109375 8.15625 -4.273438 8.15625 -3.265625 C 8.15625 -2.265625 7.785156 -1.4375 7.046875 -0.78125 C 6.304688 -0.132812 5.375 0.1875 4.25 0.1875 C 3.070312 0.1875 2.117188 -0.132812 1.390625 -0.78125 Z M 3.140625 -4.375 C 2.847656 -4.09375 2.703125 -3.722656 2.703125 -3.265625 C 2.703125 -2.816406 2.84375 -2.445312 3.125 -2.15625 C 3.40625 -1.875 3.773438 -1.734375 4.234375 -1.734375 C 4.671875 -1.734375 5.03125 -1.878906 5.3125 -2.171875 C 5.601562 -2.460938 5.75 -2.828125 5.75 -3.265625 C 5.75 -3.722656 5.601562 -4.09375 5.3125 -4.375 C 5.019531 -4.664062 4.660156 -4.8125 4.234375 -4.8125 C 3.796875 -4.8125 3.429688 -4.664062 3.140625 -4.375 Z M 3.140625 -4.375 "/></g></g></g><g fill="#000000" fill-opacity="1"><g transform="translate(156.727422, 13.081331)"><g><path d="M 0.765625 0 L 0.765625 -6.5625 L 3.03125 -6.5625 L 3.03125 -5.859375 L 3.0625 -5.859375 C 3.644531 -6.453125 4.269531 -6.75 4.9375 -6.75 C 5.257812 -6.75 5.578125 -6.707031 5.890625 -6.625 C 6.210938 -6.539062 6.519531 -6.40625 6.8125 -6.21875 C 7.113281 -6.039062 7.351562 -5.785156 7.53125 -5.453125 C 7.71875 -5.128906 7.8125 -4.75 7.8125 -4.3125 L 7.8125 0 L 5.546875 0 L 5.546875 -3.703125 C 5.546875 -4.046875 5.4375 -4.34375 5.21875 -4.59375 C 5 -4.851562 4.71875 -4.984375 4.375 -4.984375 C 4.03125 -4.984375 3.71875 -4.847656 3.4375 -4.578125 C 3.164062 -4.316406 3.03125 -4.023438 3.03125 -3.703125 L 3.03125 0 Z M 0.765625 0 "/></g></g></g></svg>